# xmcd
#
# Track frame offsets:
#	150
#	22900
#	47115
#	61860
#	79345
#	99630
#	120140
#	139967
#	154035
#	169662
#	188755
#	208090
#	226652
#	241540
#	259992
#	276302
#
# Disc length: 3874 seconds
#
# Revision: 1
# Processed by: cddbd v1.5.1PL0 Copyright (c) Steve Scherf et al.
# Submitted via: CDex 1.50Beta5
#
DISCID=ce0f2010
DTITLE=Various Artist - NEW MUSIC BEST SELECTION 10
DYEAR=1900
DGENRE=New Age
TTITLE0=オフコース/さよなら
TTITLE1=オフコース/Yes-No
TTITLE2=オフコース/眠れぬ夜
TTITLE3=甲斐バンド/HERO ヒーローになる時それは今
TTITLE4=甲斐バンド/ビューティフル・エネルギー
TTITLE5=甲斐バンド/安奈
TTITLE6=甲斐バンド/感触(タッチ)
TTITLE7=アリス/冬の稲妻
TTITLE8=アリス/涙の誓い
TTITLE9=アリス/秋止符
TTITLE10=寺尾 聰/ルビーの指環
TTITLE11=寺尾 聰/出航 SASURAI
TTITLE12=尾崎亜美/マイ・ピュア・レディ
TTITLE13=尾崎亜美/瞑想
TTITLE14=佐藤 隆/マイ・クラシック
TTITLE15=中原めいこ/君たちキウイ・パパイヤ・マンゴーだね。
EXTD=
EXTT0=
EXTT1=
EXTT2=
EXTT3=
EXTT4=
EXTT5=
EXTT6=
EXTT7=
EXTT8=
EXTT9=
EXTT10=
EXTT11=
EXTT12=
EXTT13=
EXTT14=
EXTT15=
PLAYORDER=
